<svg width="80" height="80" viewBox="0 0 80 80" xmlns="http://www.w3.org/2000/svg">
  <defs>
    <linearGradient id="cancerGrad" x1="0%" y1="0%" x2="100%" y2="100%">
      <stop offset="0%" style="stop-color:#4682B4;stop-opacity:1" />
      <stop offset="100%" style="stop-color:#D4AF37;stop-opacity:1" />
    </linearGradient>
  </defs>
  
  <!-- Krebs - Mond und Wellen -->
  <g transform="translate(40,40)">
    <!-- Mondphasen -->
    <circle cx="0" cy="-10" r="12" 
            fill="url(#cancerGrad)" 
            stroke="#D4AF37" 
            stroke-width="2">
      <animate attributeName="r" values="12;14;12" dur="3s" repeatCount="indefinite"/>
    </circle>
    
    <!-- Mondschatten -->
    <path d="M-8,-10 A 8 8 0 0 0 -8,2 A 12 12 0 0 1 -8,-10" 
          fill="#2F4F4F" 
          opacity="0.6">
      <animateTransform
        attributeName="transform"
        type="rotate"
        values="0;360"
        dur="8s"
        repeatCount="indefinite"/>
    </path>
    
    <!-- Wasser-Wellen -->
    <path d="M-25,10 Q-15,5 -5,10 Q5,15 15,10 Q25,5 35,10" 
          fill="none" 
          stroke="#4682B4" 
          stroke-width="2" 
          opacity="0.7">
      <animateTransform
        attributeName="transform"
        type="translate"
        values="0,0;5,0;0,0"
        dur="2.5s"
        repeatCount="indefinite"/>
    </path>
    
    <path d="M-25,18 Q-15,13 -5,18 Q5,23 15,18 Q25,13 35,18" 
          fill="none" 
          stroke="#4682B4" 
          stroke-width="2" 
          opacity="0.5">
      <animateTransform
        attributeName="transform"
        type="translate"
        values="0,0;-5,0;0,0"
        dur="3s"
        repeatCount="indefinite"/>
    </path>
    
    <!-- Emotionale Tropfen -->
    <circle cx="-20" cy="-20" r="1.5" fill="#87CEEB" opacity="0.8">
      <animate attributeName="cy" values="-20;25;-20" dur="4s" repeatCount="indefinite"/>
    </circle>
    <circle cx="20" cy="-25" r="1.5" fill="#87CEEB" opacity="0.6">
      <animate attributeName="cy" values="-25;20;-25" dur="4.5s" repeatCount="indefinite"/>
    </circle>
  </g>
</svg>
