<svg width="80" height="80" viewBox="0 0 80 80" xmlns="http://www.w3.org/2000/svg">
  <defs>
    <linearGradient id="capricornGrad" x1="0%" y1="0%" x2="100%" y2="100%">
      <stop offset="0%" style="stop-color:#2F4F4F;stop-opacity:1" />
      <stop offset="100%" style="stop-color:#D4AF37;stop-opacity:1" />
    </linearGradient>
  </defs>
  
  <!-- Steinbock - Berg und Ziege -->
  <g transform="translate(40,40)">
    <!-- Berg -->
    <polygon points="0,-25 -15,10 15,10" 
             fill="url(#capricornGrad)" 
             stroke="#D4AF37" 
             stroke-width="2">
      <animateTransform
        attributeName="transform"
        type="scale"
        values="1;1.02;1"
        dur="4s"
        repeatCount="indefinite"/>
    </polygon>
    
    <!-- Gipfel -->
    <polygon points="0,-25 -5,-15 5,-15" 
             fill="#D4AF37" 
             opacity="0.8">
      <animate attributeName="opacity" values="0.8;0.5;0.8" dur="3s" repeatCount="indefinite"/>
    </polygon>
    
    <!-- Ziegen-Hörner -->
    <path d="M-8,-20 Q-12,-25 -6,-28 Q-4,-25 -6,-22" 
          fill="url(#capricornGrad)" 
          stroke="#D4AF37" 
          stroke-width="1">
      <animateTransform
        attributeName="transform"
        type="rotate"
        values="0;3;0"
        dur="3s"
        repeatCount="indefinite"/>
    </path>
    
    <path d="M8,-20 Q12,-25 6,-28 Q4,-25 6,-22" 
          fill="url(#capricornGrad)" 
          stroke="#D4AF37" 
          stroke-width="1">
      <animateTransform
        attributeName="transform"
        type="rotate"
        values="0;-3;0"
        dur="3s"
        repeatCount="indefinite"/>
    </path>
    
    <!-- Ausdauer-Symbole (Kristalle) -->
    <polygon points="-20,5 -18,0 -16,5" 
             fill="#2F4F4F" 
             opacity="0.7">
      <animate attributeName="opacity" values="0.7;0.3;0.7" dur="2s" repeatCount="indefinite"/>
    </polygon>
    
    <polygon points="20,5 18,0 16,5" 
             fill="#2F4F4F" 
             opacity="0.6">
      <animate attributeName="opacity" values="0.6;0.9;0.6" dur="2.5s" repeatCount="indefinite"/>
    </polygon>
    
    <!-- Aufstiegs-Pfad -->
    <path d="M-10,8 Q-5,0 0,-10 Q5,0 10,8" 
          fill="none" 
          stroke="#D4AF37" 
          stroke-width="1" 
          stroke-dasharray="2,2" 
          opacity="0.6">
      <animate attributeName="stroke-dashoffset" values="0;4;0" dur="2s" repeatCount="indefinite"/>
    </path>
  </g>
</svg>
