<svg xmlns="http://www.w3.org/2000/svg" style="display:none">
  <!-- Simple stylized zodiac symbols (placeholder vector paths) -->
  <symbol id="aries" viewBox="0 0 64 64"><path fill="#D4AF37" d="M20 14c-6 0-10 5-10 12 0 6 3 11 8 14l2-4c-3-2-5-6-5-10 0-5 3-8 6-8 4 0 7 5 11 20h4c4-15 7-20 11-20 3 0 6 3 6 8 0 4-2 8-5 10l2 4c5-3 8-8 8-14 0-7-4-12-10-12-6 0-10 5-14 16C30 19 26 14 20 14z"/></symbol>
  <symbol id="taurus" viewBox="0 0 64 64"><path fill="#D4AF37" d="M22 10c-5 0-9 4-9 9 0 4 2 7 5 9a18 18 0 1 0 28 0c3-2 5-5 5-9 0-5-4-9-9-9-4 0-7 2-11 8-4-6-7-8-11-8zm10 16a12 12 0 1 1 0 24 12 12 0 0 1 0-24z"/></symbol>
  <symbol id="gemini" viewBox="0 0 64 64"><path fill="#D4AF37" d="M16 10h32v6c-8 4-16 4-24 0v20c8 4 16 4 24 0v6H16v-6c8 4 16 4 24 0V16c-8 4-16 4-24 0v-6z"/></symbol>
  <symbol id="cancer" viewBox="0 0 64 64"><path fill="#D4AF37" d="M22 30a10 10 0 1 1 0-20c6 0 11 5 20 22 3 6 7 10 10 10a6 6 0 0 0 0-12 4 4 0 0 1 0-8 12 12 0 0 1 0 24c-6 0-11-5-20-22-3-6-7-10-10-10a6 6 0 0 0 0 12 4 4 0 0 1 0 8z"/></symbol>
  <symbol id="leo" viewBox="0 0 64 64"><path fill="#D4AF37" d="M38 12a14 14 0 0 0-14 14v14a8 8 0 1 0 8 8h-6a2 2 0 1 1 0-4h10V26a8 8 0 1 1 16 0c0 6-4 10-8 10v-4c2 0 4-2 4-6a4 4 0 1 0-8 0v24h-4V26a10 10 0 0 0-20 0v14a12 12 0 1 0 12 12h-4a8 8 0 1 1-8-8V26a14 14 0 0 1 28 0c0 8-5 14-12 14v-4c5 0 8-4 8-10a14 14 0 0 0-14-14z"/></symbol>
  <symbol id="virgo" viewBox="0 0 64 64"><path fill="#D4AF37" d="M14 14h6v20a6 6 0 0 0 12 0V14h6v20a6 6 0 0 0 12 0v-8h-4v8a2 2 0 0 1-4 0V14h6v20c0 5-3 9-8 10v12h-4V44c-5-1-8-5-8-10V14h-2v20c0 5-3 9-8 10v12h-4V14z"/></symbol>
  <symbol id="libra" viewBox="0 0 64 64"><path fill="#D4AF37" d="M10 44h44v6H10v-6zm22-4c8 0 14-6 14-14s-6-14-14-14-14 6-14 14h6c0-4 4-8 8-8s8 4 8 8-4 8-8 8H10v6h22z"/></symbol>
  <symbol id="scorpio" viewBox="0 0 64 64"><path fill="#D4AF37" d="M14 14h6v20a6 6 0 1 0 12 0V14h6v20a6 6 0 1 0 12 0v-8h-4l6-8 6 8h-4v8c0 8-6 14-14 14-4 0-8-2-10-5-2 3-6 5-10 5-8 0-14-6-14-14V14z"/></symbol>
  <symbol id="sagittarius" viewBox="0 0 64 64"><path fill="#D4AF37" d="M14 14h36l-8-8h12v12l-8-8-9 9 11 11-3 3-11-11-19 19-3-3 19-19-9-9z"/></symbol>
  <symbol id="capricorn" viewBox="0 0 64 64"><path fill="#D4AF37" d="M18 14h6v20c0 4 2 6 4 6s4-2 4-6V14h6v20c0 4 2 6 4 6 3 0 4-3 4-6 0-5-2-8-5-8v-4c7 0 11 6 11 12 0 6-4 12-10 12-3 0-6-1-8-4-2 3-5 4-8 4-6 0-10-6-10-12V14z"/></symbol>
  <symbol id="aquarius" viewBox="0 0 64 64"><path fill="#D4AF37" d="M10 26c4 0 6-4 10-4s6 4 10 4 6-4 10-4 6 4 10 4v6c-4 0-6-4-10-4s-6 4-10 4-6-4-10-4-6 4-10 4v-6zM10 40c4 0 6-4 10-4s6 4 10 4 6-4 10-4 6 4 10 4v6c-4 0-6-4-10-4s-6 4-10 4-6-4-10-4-6 4-10 4v-6z"/></symbol>
  <symbol id="pisces" viewBox="0 0 64 64"><path fill="#D4AF37" d="M14 18c6 2 10 6 18 6s12-4 18-6v6c-4 2-8 4-12 5v6c4 1 8 3 12 5v6c-6-2-10-6-18-6s-12 4-18 6v-6c4-2 8-4 12-5v-6c-4-1-8-3-12-5v-6z"/></symbol>
</svg>
